<svg width="64" height="104" viewBox="0 0 64 104" fill="none" xmlns="http://www.w3.org/2000/svg">
<g clip-path="url(#clip0_529_745)">
<rect width="64" height="64" fill="#E4F7F9"/>
<rect x="8" y="8" width="48" height="48" rx="24" fill="#244FC3"/>
<path d="M29.4152 14.9015L31.3853 14.905L32.0002 13L32.615 14.905L34.5852 14.9015L34.5998 14.899L34.5965 14.9015L34.5998 14.9015L34.5891 14.9069L32.994 16.0742L33.6069 17.9764L33.6026 17.972L33.6056 17.9778L32.0002 16.8039L30.3948 17.9778L30.3977 17.972L30.3934 17.9764L31.0063 16.0742L29.4112 14.9069L29.4005 14.9015L29.4039 14.9015L29.4005 14.899L29.4152 14.9015Z" fill="#FFC247"/>
<path d="M32.0002 46.0222L31.3853 47.9272L29.4152 47.9237L29.4005 47.9212L29.4039 47.9237L29.4005 47.9237L29.4112 47.9291L31.0063 49.0964L30.3934 50.9986L30.3977 50.9942L30.3948 51L32.0002 49.8261L33.6056 51L33.6026 50.9942L33.6069 50.9986L32.994 49.0964L34.5891 47.9291L34.5998 47.9237L34.5965 47.9237L34.5998 47.9212L34.5852 47.9237L32.615 47.9272L32.0002 46.0222Z" fill="#FFC247"/>
<path d="M15.5997 29.5111L14.9848 31.4161L13.0147 31.4126L13 31.4101L13.0034 31.4126L13 31.4126L13.0107 31.418L14.6058 32.5853L13.9929 34.4875L13.9972 34.4831L13.9943 34.4889L15.5997 33.315L17.2051 34.4889L17.2021 34.4831L17.2064 34.4875L16.5935 32.5853L18.1886 31.418L18.1993 31.4126L18.196 31.4126L18.1993 31.4101L18.1847 31.4126L16.2145 31.4161L15.5997 29.5111Z" fill="#FFC247"/>
<path d="M22.1948 20.1902L23.8019 19.0151L25.3991 20.1837L25.4067 20.1915L25.4058 20.1886L25.408 20.1902L25.4035 20.1814L24.7921 18.2902L26.3974 17.1163L26.3987 17.1157L26.3997 17.1146L26.3934 17.1157L24.413 17.1141L23.798 15.2121L23.1848 17.1155L21.2083 17.1136L21.2004 17.1122L21.2022 17.1136L21.2004 17.1136L21.2062 17.1165L22.806 18.287L22.1934 20.1888L22.1979 20.1842L22.1948 20.1902Z" fill="#FFC247"/>
<path d="M19.4036 26.2323L18.791 24.3305L20.3908 23.16L20.3966 23.157L20.3948 23.157L20.3966 23.1557L20.3887 23.157L18.4122 23.1589L17.799 21.2556L17.1839 23.1576L15.2036 23.1592L15.1973 23.1581L16.8049 24.3337L16.1935 26.2249L16.189 26.2337L16.1912 26.2321L16.1903 26.235L16.1979 26.2272L17.7951 25.0586L19.4022 26.2337L19.3991 26.2276L19.4036 26.2323Z" fill="#FFC247"/>
<path d="M20.3759 39.6682L18.4142 39.6731L17.8013 37.7667L17.1849 39.6689L15.2053 39.6708L15.1973 39.6695L16.8057 40.8456L16.196 42.7294L16.188 42.7448L16.1919 42.7419L16.1903 42.7471L16.2036 42.7334L17.7929 41.5703L19.4 42.7448L19.3921 42.7294L19.4036 42.7411L18.7925 40.8388L20.3815 39.6758L20.3966 39.6681L20.3919 39.6681L20.3966 39.6647L20.3759 39.6682Z" fill="#FFC247"/>
<path d="M26.379 45.7117L24.4173 45.7166L23.8044 43.8101L23.188 45.7124L21.2084 45.7143L21.2004 45.713L22.8088 46.8891L22.1991 48.7729L22.1911 48.7883L22.195 48.7854L22.1934 48.7905L22.2067 48.7769L23.796 47.6138L25.4031 48.7883L25.3952 48.7728L25.4067 48.7846L24.7956 46.8823L26.3846 45.7192L26.3997 45.7116L26.395 45.7116L26.3997 45.7081L26.379 45.7117Z" fill="#FFC247"/>
<path d="M48.4003 29.5111L49.0152 31.4161L50.9853 31.4126L51 31.4101L50.9966 31.4126L51 31.4126L50.9893 31.418L49.3942 32.5853L50.0071 34.4875L50.0028 34.4831L50.0057 34.4889L48.4003 33.315L46.7949 34.4889L46.7979 34.4831L46.7936 34.4875L47.4065 32.5853L45.8114 31.418L45.8007 31.4126L45.804 31.4126L45.8007 31.4101L45.8153 31.4126L47.7855 31.4161L48.4003 29.5111Z" fill="#FFC247"/>
<path d="M41.8052 20.1902L40.1981 19.0151L38.6009 20.1837L38.5933 20.1915L38.5942 20.1886L38.592 20.1902L38.5965 20.1814L39.2079 18.2902L37.6026 17.1163L37.6003 17.1146L37.6066 17.1157L39.587 17.1141L40.202 15.2121L40.8152 17.1155L42.7917 17.1136L42.7996 17.1122L42.7978 17.1136L42.7996 17.1136L42.7938 17.1165L41.194 18.287L41.8066 20.1888L41.8021 20.1842L41.8052 20.1902Z" fill="#FFC247"/>
<path d="M44.5964 26.2323L45.209 24.3305L43.6092 23.16L43.6034 23.157L43.6052 23.157L43.6034 23.1557L43.6113 23.157L45.5879 23.1589L46.201 21.2556L46.8161 23.1576L48.7964 23.1592L48.8027 23.1581L47.1951 24.3337L47.8065 26.2249L47.811 26.2337L47.8088 26.2321L47.8097 26.235L47.8021 26.2272L46.2049 25.0586L44.5978 26.2337L44.6009 26.2276L44.5964 26.2323Z" fill="#FFC247"/>
<path d="M43.6241 39.6682L45.5858 39.6731L46.1987 37.7666L46.8151 39.6689L48.7947 39.6708L48.8027 39.6695L47.1943 40.8456L47.804 42.7294L47.812 42.7448L47.8081 42.7419L47.8097 42.7471L47.7964 42.7334L46.2071 41.5703L44.6 42.7448L44.6079 42.7294L44.5964 42.7411L45.2075 40.8388L43.6185 39.6757L43.6034 39.6681L43.6081 39.6681L43.6034 39.6647L43.6241 39.6682Z" fill="#FFC247"/>
<path d="M37.621 45.7117L39.5828 45.7166L40.1956 43.8101L40.812 45.7124L42.7916 45.7143L42.7996 45.713L41.1912 46.8891L41.8009 48.7729L41.8089 48.7883L41.805 48.7854L41.8066 48.7905L41.7933 48.7768L40.204 47.6138L38.5969 48.7883L38.6048 48.7728L38.5933 48.7846L39.2044 46.8823L37.6154 45.7192L37.6003 45.7116L37.605 45.7116L37.6003 45.7081L37.621 45.7117Z" fill="#FFC247"/>
<path fill-rule="evenodd" clip-rule="evenodd" d="M29.1422 28.4287C29.1422 26.8507 30.4213 25.5715 31.9993 25.5715C33.5773 25.5715 34.8564 26.8507 34.8564 28.4287V29.8573H36.2857C36.6802 29.8573 37 30.1771 37 30.5716V37.7144C37 38.1089 36.6802 38.4287 36.2857 38.4287H27.7143C27.3198 38.4287 27 38.1089 27 37.7144V30.5716C27 30.1771 27.3198 29.8573 27.7143 29.8573H29.1422V28.4287ZM33.4279 28.4287V29.8573H30.5707V28.4287C30.5707 27.6397 31.2103 27.0001 31.9993 27.0001C32.7883 27.0001 33.4279 27.6397 33.4279 28.4287ZM29.3208 34.8142L28.8483 34.2786L29.9195 33.3334L30.392 33.869L31.292 34.889L33.6396 32.5642L34.1471 32.0616L35.1523 33.0767L34.6448 33.5793L32.0284 36.1703C31.5908 36.6037 30.8786 36.5797 30.4711 36.1178L29.3208 34.8142Z" fill="white"/>
<rect width="64" height="40" transform="translate(0 64)" fill="white"/>
<path d="M18.8585 84.112C16.3665 84.112 14.0565 82.446 14.0565 79.1C14.0565 75.754 16.4225 74.088 18.9845 74.088C21.3365 74.088 23.0025 75.32 23.3805 77.35L21.5045 77.742C21.2665 76.51 20.2865 75.726 18.9705 75.726C17.2205 75.726 15.9745 76.958 15.9745 79.1C15.9745 81.242 17.2205 82.46 18.9425 82.46C20.4265 82.46 21.4205 81.578 21.5185 80.304H18.6065V78.764H23.2825V84H21.5605V82.81C21.1265 83.608 20.0485 84.112 18.8585 84.112ZM24.7378 84V74.2H27.9438C30.6458 74.2 32.9698 75.81 32.9698 79.1C32.9698 82.39 30.6458 84 27.9438 84H24.7378ZM26.6138 82.348H27.7758C29.4558 82.348 31.0378 81.494 31.0378 79.1C31.0378 76.706 29.4558 75.838 27.7758 75.838H26.6138V82.348ZM34.1242 84V74.2H38.0722C40.0602 74.2 41.3342 75.376 41.3342 77.196C41.3342 79.002 40.0602 80.178 38.0722 80.178H36.0282V84H34.1242ZM36.0282 78.54H37.9042C38.8562 78.54 39.4302 78.036 39.4302 77.196C39.4302 76.342 38.8562 75.838 37.9042 75.838H36.0282V78.54ZM42.266 84L42.252 74.2H46.032C47.95 74.2 49.196 75.334 49.196 77.098C49.196 78.204 48.622 79.142 47.656 79.618L50.26 84H48.034L45.724 79.982H44.17V84H42.266ZM44.17 78.344H45.738C46.718 78.344 47.278 77.882 47.278 77.098C47.278 76.314 46.718 75.838 45.738 75.838H44.17V78.344Z" fill="#001F1F"/>
<path d="M12.3365 95.056C11.0415 95.056 9.90051 94.209 9.90051 92.55C9.90051 90.891 11.0625 90.044 12.3365 90.044C13.5125 90.044 14.3455 90.688 14.5135 91.675L13.5685 91.871C13.4425 91.248 12.9665 90.863 12.3365 90.863C11.5105 90.863 10.8665 91.451 10.8665 92.55C10.8665 93.649 11.5035 94.23 12.3365 94.23C12.9735 94.23 13.4145 93.88 13.5405 93.306L14.4995 93.516C14.2615 94.475 13.4635 95.056 12.3365 95.056ZM18.0588 95.056C16.6238 95.056 15.5738 93.999 15.5738 92.55C15.5738 91.101 16.6238 90.044 18.0588 90.044C19.4868 90.044 20.5368 91.101 20.5368 92.55C20.5368 93.999 19.4868 95.056 18.0588 95.056ZM16.5328 92.55C16.5328 93.523 17.1698 94.23 18.0588 94.23C18.9478 94.23 19.5778 93.523 19.5778 92.55C19.5778 91.577 18.9478 90.863 18.0588 90.863C17.1698 90.863 16.5328 91.577 16.5328 92.55ZM21.8059 95V90.1H22.8769L24.3749 93.649L25.8729 90.1H26.9439V95H26.0479V91.871L24.7319 95H24.0179L22.7019 91.871V95H21.8059ZM28.4363 95V90.1H30.4103C31.4043 90.1 32.0413 90.688 32.0413 91.598C32.0413 92.501 31.4043 93.089 30.4103 93.089H29.3883V95H28.4363ZM29.3883 92.27H30.3263C30.8023 92.27 31.0893 92.018 31.0893 91.598C31.0893 91.171 30.8023 90.919 30.3263 90.919H29.3883V92.27ZM33.2003 95V90.1H34.1523V94.174H36.4273V95H33.2003ZM37.5337 95V90.1H38.4857V95H37.5337ZM41.8848 91.346L41.2338 93.11H42.5358L41.8848 91.346ZM39.5538 95L41.4368 90.1H42.3258L44.2088 95H43.2288L42.8298 93.915H40.9328L40.5338 95H39.5538ZM45.2367 95V90.1H46.2027L48.3027 93.502V90.1H49.1917V95H48.2257L46.1327 91.605V95H45.2367ZM51.8114 95V90.919H50.3344V90.1H54.2404V90.919H52.7634V95H51.8114Z" fill="#6A7878"/>
</g>
<defs>
<clipPath id="clip0_529_745">
<rect width="64" height="104" fill="white"/>
</clipPath>
</defs>
</svg>
